<svg xmlns="http://www.w3.org/2000/svg" width="32" height="32" id="ambulance"><g transform="translate(0 -1018.361)"><path fill="#cdcccd" d="M3.944 1043.862H.5v-3h31v3h-4.375m-4.219 0H8.176"></path><path fill="#ec7bb0" d="M14.5 1026.782v-.92c0-.554.446-1 1-1s1 .446 1 1v.92"></path><path fill="#f2f2f2" d="M19.364 1028.888H24c1.939 0 3.5 1.56 3.5 3.5v3.474H29c1.385 0 2.5 1.115 2.5 2.5v2.516l-12.068.01z"></path><path fill="#f2f2f2" d="M.5 1026.862h19v14H.5z"></path><circle cx="6" cy="1045.362" r="2.5" fill="#8a7988"></circle><circle cx="25" cy="1045.362" r="2.5" fill="#8a7988"></circle><path fill="#92d9f7" fill-rule="evenodd" d="M25.5 1034.831h-4v-3.969h2c1.215 0 2.006.777 2.006 1.991v1.437z"></path><circle cx="6" cy="1045.362" r=".5" fill="#62355c"></circle><circle cx="25" cy="1045.362" r=".5" fill="#62355c"></circle><path fill="#ec7bb0" d="M9.5 1030.862v2h-2v2h2v2h2v-2h2v-2h-2v-2h-2z"></path><path style="line-height:normal;text-indent:0;text-align:start;text-decoration-line:none;text-decoration-style:solid;text-decoration-color:#000;text-transform:none;block-progression:tb;isolation:auto;mix-blend-mode:normal" fill="#62355c" d="M-206.508 505.807a.5.5 0 0 0-.492.507v1a.5.5 0 1 0 1 0v-1a.5.5 0 0 0-.508-.507zm-2.709 1.297a.5.5 0 0 0-.35.859l.708.707a.5.5 0 1 0 .707-.707l-.707-.707a.5.5 0 0 0-.358-.152zm5.42 0a.5.5 0 0 0-.344.152l-.707.707a.5.5 0 1 0 .707.707l.707-.707a.5.5 0 0 0-.363-.86zm-2.703 1.716c-.822 0-1.5.678-1.5 1.5v.5h-13.5a.5.5 0 0 0-.5.5v17a.5.5 0 0 0 .5.5h2.686a2.95 2.95 0 0 0-.186 1c0 1.651 1.35 3 3 3s3-1.349 3-3a2.95 2.95 0 0 0-.186-1h13.372a2.95 2.95 0 0 0-.186 1c0 1.651 1.35 3 3 3s3-1.349 3-3a2.95 2.95 0 0 0-.186-1h3.686a.5.5 0 0 0 .5-.5v-5.5c0-1.653-1.347-3-3-3h-1v-2.974c0-2.208-1.793-4-4-4h-4v-1.526a.5.5 0 0 0-.5-.5h-2.5v-.5c0-.822-.678-1.5-1.5-1.5zm0 1c.286 0 .5.215.5.5v.5h-1v-.5c0-.285.214-.5.5-.5zm-14.5 2h18v13h-18v-1h1.508a.5.5 0 1 0 0-1H-221v-11zm19 2.026h4c1.67 0 3 1.33 3 3v3.974h2c1.117 0 2 .884 2 2h-1.508a.5.5 0 1 0 0 1H-191v1h-11v-10.974zm-10.5.974a.5.5 0 0 0-.5.5v1.5h-1.5a.5.5 0 0 0-.5.5v2a.5.5 0 0 0 .5.5h1.5v1.5a.5.5 0 0 0 .5.5h2a.5.5 0 0 0 .5-.5v-1.5h1.5a.5.5 0 0 0 .5-.5v-2a.5.5 0 0 0-.5-.5h-1.5v-1.5a.5.5 0 0 0-.5-.5h-2zm11.5 0v4.97h4.994l.006-.495.006-.543v-1.44c0-.715-.242-1.358-.695-1.806-.453-.449-1.097-.686-1.81-.686H-201zm-11 1h1v1.5a.5.5 0 0 0 .5.5h1.5v1h-1.5a.5.5 0 0 0-.5.5v1.5h-1v-1.5a.5.5 0 0 0-.5-.5h-1.5v-1h1.5a.5.5 0 0 0 .5-.5v-1.5zm12 0h1.5c.501 0 .861.153 1.108.397.246.243.398.597.398 1.095V518.79H-200v-2.969zm-.5 5a.5.5 0 1 0 0 1h1a.5.5 0 1 0 0-1h-1zm-20.5 5h30v2h-3.783c-.55-.608-1.336-1-2.217-1-.88 0-1.667.392-2.217 1h-14.566c-.55-.608-1.336-1-2.217-1-.88 0-1.667.392-2.217 1H-221v-2zm5 2c1.11 0 2 .89 2 2 0 1.11-.89 2-2 2-1.11 0-2-.89-2-2 0-1.11.89-2 2-2zm19 0c1.11 0 2 .89 2 2 0 1.11-.89 2-2 2-1.11 0-2-.89-2-2 0-1.11.89-2 2-2z" color="#000" font-family="sans-serif" font-weight="400" overflow="visible" transform="translate(222 515.54)"></path></g></svg>