<svg xmlns="http://www.w3.org/2000/svg" fill-rule="evenodd" stroke-linejoin="round" stroke-miterlimit="2" clip-rule="evenodd" viewBox="0 0 65 64" id="bird"><rect width="64" height="64" x=".5" fill="none"></rect><path fill="#11191d" d="M52.291,51.902l-4.701,-4.701c-0.669,-0.693 -0.755,-1.859 -0.183,-2.618c0.393,-0.521 1.056,-0.816 1.702,-0.794c0.227,0.016 0.289,0.033 0.413,0.066c0.337,0.09 0.643,0.272 0.896,0.517l4.702,4.702l1.414,-1.414c0.148,-0.143 0.178,-0.161 0.255,-0.216c0.309,-0.219 0.68,-0.349 1.059,-0.368c0.13,-0.006 0.16,-0.001 0.201,0c1.237,0.083 2.228,1.454 1.777,2.685c-0.069,0.189 -0.166,0.367 -0.288,0.526c-0.054,0.071 -0.113,0.137 -0.175,0.201l-5.657,5.657c-0.5,0.483 -1.244,0.694 -1.911,0.523c-0.821,-0.21 -1.458,-0.99 -1.501,-1.837c-0.028,-0.557 0.196,-1.114 0.583,-1.514l1.414,-1.415Z"></path><path fill="#263238" d="M42.462,54.441l-7.24,-7.24c-0.864,-0.9 -0.677,-2.557 0.462,-3.173c0.315,-0.171 0.672,-0.247 1.034,-0.24c0.254,0.016 0.296,0.031 0.409,0.06c0.347,0.088 0.665,0.277 0.923,0.524l7.24,7.24l1.414,-1.414c0.148,-0.143 0.179,-0.161 0.255,-0.215c0.309,-0.22 0.68,-0.349 1.059,-0.368c0.13,-0.007 0.16,-0.001 0.201,0c1.246,0.083 2.222,1.47 1.778,2.685c-0.069,0.188 -0.167,0.366 -0.288,0.525c-0.055,0.071 -0.114,0.138 -0.176,0.202l-5.657,5.656c-0.725,0.701 -1.968,0.759 -2.731,0.092c-0.798,-0.698 -0.905,-2.058 -0.144,-2.872c0.015,-0.016 0.031,-0.032 0.046,-0.048l1.415,-1.414Z"></path><path fill="#7cb342" d="M53.144,30.889c0.299,0.216 0.399,0.252 0.62,0.555c0.233,0.319 0.362,0.697 0.516,1.062c1.75,4.14 2.656,8.636 2.668,13.167l0,0.056c-0.033,0.345 -0.017,0.441 -0.152,0.766c-0.2,0.486 -0.597,0.882 -1.082,1.083c-0.325,0.135 -0.421,0.119 -0.766,0.153c-6.036,0 -12.072,0.009 -18.108,0c-8.114,-0.036 -16.126,-3.889 -21.197,-10.399c-3.657,-4.694 -5.685,-10.606 -5.695,-16.575l0,-7.026c0.034,-0.345 0.018,-0.441 0.153,-0.766c0.201,-0.485 0.597,-0.881 1.082,-1.082c0.325,-0.134 0.421,-0.118 0.765,-0.152c3.692,0 7.383,-0.004 11.074,0c6.035,0.019 12.038,1.666 17.197,4.707l0.334,0.247c0.244,0.275 0.332,0.332 0.482,0.674c0.276,0.63 0.197,1.414 -0.216,1.98c-0.22,0.302 -0.319,0.338 -0.616,0.554c-1.95,1.125 -3.91,2.233 -5.85,3.377c-0.965,0.578 -1.368,1.929 -0.783,2.964c1.143,1.993 2.13,4.166 3.853,5.633c2.785,2.371 7.055,2.843 10.349,0.976c1.11,-0.634 2.215,-1.276 3.32,-1.917l0.049,-0.029l0.382,-0.172c0.361,-0.078 0.454,-0.128 0.828,-0.09c0.277,0.028 0.537,0.141 0.793,0.254Z"></path><path fill="#263238" d="M21.469,16.792c1.481,0.018 2.939,0.658 3.944,1.736c1.602,1.717 1.916,4.505 0.699,6.54c-0.971,1.625 -2.826,2.681 -4.746,2.663c-1.477,-0.015 -2.936,-0.656 -3.944,-1.736c-1.291,-1.384 -1.786,-3.466 -1.249,-5.284c0.666,-2.253 2.887,-3.936 5.296,-3.919Z"></path><path fill="#689f38" d="M46.294,33.506c0.508,-0.173 1.003,-0.394 1.478,-0.663c1.11,-0.634 2.215,-1.276 3.32,-1.917l0.049,-0.029l0.382,-0.172c0.361,-0.078 0.454,-0.128 0.828,-0.09c0.277,0.028 0.537,0.141 0.793,0.254c0.299,0.216 0.399,0.252 0.62,0.555c0.233,0.319 0.362,0.697 0.516,1.062c1.75,4.14 2.656,8.636 2.668,13.167l0,0.056c-0.033,0.345 -0.017,0.441 -0.152,0.766c-0.2,0.486 -0.597,0.882 -1.082,1.083c-0.325,0.135 -0.421,0.119 -0.766,0.153c-6.036,0 -12.072,0.009 -18.108,0c-7.233,-0.032 -14.385,-3.097 -19.445,-8.374c2.967,1.017 6.149,1.569 9.459,1.569c7.463,0 14.276,-2.806 19.44,-7.42Z"></path><path fill="#fff" d="M21.412,20.792c-0.924,0.005 -1.723,1.053 -1.369,1.986c0.272,0.716 1.159,1.131 1.883,0.861c0.685,-0.255 1.113,-1.066 0.903,-1.786c-0.175,-0.598 -0.763,-1.049 -1.389,-1.061c-0.009,0 -0.018,0 -0.028,0Z"></path><path fill="#ffc107" d="M11.479,26.995l-2.664,0c-2.152,-0.008 -4.269,-1.056 -5.622,-2.749c-1.112,-1.392 -1.756,-3.19 -1.692,-4.956c0.036,-0.987 0.892,-1.885 1.92,-1.925c0.027,-0.001 0.053,-0.001 0.079,-0.002l7.979,0c0.026,0 0.052,0.001 0.078,0.002c0.07,0.004 0.087,0.004 0.157,0.012c0.931,0.11 1.725,0.938 1.763,1.907c0.001,0.027 0.001,0.053 0.002,0.079l0,5.632c-0.02,1.006 -0.833,1.915 -1.843,1.994c-0.07,0.006 -0.088,0.005 -0.157,0.006Z"></path><path fill="#ffd600" d="M11.948,21.363l-8.448,0c-1.039,-0.021 -1.96,-0.891 -1.999,-1.925c-0.114,-3.069 2.074,-6.254 5.184,-7.306c0.785,-0.265 1.613,-0.398 2.444,-0.401l2.819,0c0.027,0 0.054,0.001 0.081,0.001c0.071,0.005 0.089,0.005 0.16,0.013c0.954,0.116 1.739,0.992 1.759,1.986l0,5.632c-0.001,0.072 0,0.09 -0.006,0.161c-0.077,0.956 -0.919,1.797 -1.913,1.837c-0.027,0.001 -0.054,0.001 -0.081,0.002Z"></path><path fill="#d32f2f" d="M59.519,4.799c0.325,0.123 0.422,0.132 0.701,0.347c0.533,0.41 0.804,1.083 1.119,1.713c2.594,5.192 2.91,11.475 0.788,16.961c-1.701,4.396 -4.909,8.162 -9.023,10.563c-1.521,0.882 -3.014,1.866 -4.581,2.553c-3.404,1.491 -7.449,1.424 -10.809,-0.162c-2.367,-1.118 -4.37,-2.955 -5.702,-5.239c-0.674,-1.163 -1.383,-2.301 -2.014,-3.497c-1.149,-2.177 -0.845,-5.048 0.799,-6.943c0.449,-0.518 0.985,-0.957 1.579,-1.302l25.624,-14.794c0.316,-0.143 0.391,-0.205 0.74,-0.251c0.259,-0.034 0.521,0.008 0.779,0.051Z"></path><path fill="#fff" d="M36.301 20.011c.914-.914 2.187-1.126 2.84-.473.653.653.441 1.925-.473 2.84-.915.914-2.187 1.126-2.84.473-.653-.653-.441-1.926.473-2.84zM38.928 23.656c.457-.457 1.094-.563 1.42-.237.327.327.221.963-.236 1.42-.458.458-1.094.564-1.42.237-.327-.326-.221-.963.236-1.42z"></path><path fill="#b71c1c" d="M53.482,7.607l4.518,-2.608c0.316,-0.143 0.391,-0.205 0.74,-0.251c0.259,-0.034 0.521,0.008 0.779,0.051c0.325,0.123 0.422,0.132 0.701,0.347c0.533,0.41 0.804,1.083 1.119,1.713c2.594,5.192 2.91,11.475 0.788,16.961c-1.701,4.396 -4.909,8.162 -9.023,10.563c-1.521,0.882 -3.014,1.866 -4.581,2.553c-3.404,1.491 -7.449,1.424 -10.809,-0.162c-1.023,-0.483 -1.978,-1.101 -2.84,-1.83c10.886,-4.244 18.608,-14.835 18.608,-27.215l0,-0.122Z"></path><path fill="#fff" d="M6.19 15.605c.637-.636 1.523-.784 1.978-.329.454.455.307 1.341-.33 1.977-.637.637-1.523.785-1.978.33-.454-.455-.307-1.341.33-1.978zM8.728 16.961c.319-.318.762-.392.989-.165.227.228.154.671-.165.989-.318.318-.761.392-.989.165-.227-.227-.153-.671.165-.989z"></path></svg>