<svg xmlns="http://www.w3.org/2000/svg" data-name="Layer 2" viewBox="0 0 64 64" id="car"><path d="M5.44 13h41.13a8.17 8.17 0 0 0-7-4h-27.1a8.16 8.16 0 0 0-7.03 4zM23 51a7 7 0 1 0-7 7 7 7 0 0 0 7-7zm-9 0a2 2 0 1 1 2 2 2 2 0 0 1-2-2zm30-7a7 7 0 1 0 7 7 7 7 0 0 0-7-7zm0 9a2 2 0 1 1 2-2 2 2 0 0 1-2 2zm17-9h-4a1 1 0 0 0 0 2h4v-2z"></path><path d="M54 45a3 3 0 0 1 3-3h3.57A11 11 0 0 0 50 34h-1.39l-4.71-9.19A7 7 0 0 0 37.67 21H37v-2h2.53a8.26 8.26 0 0 0 7.07-4H5.43a8.17 8.17 0 0 0 7 4H15v2a5 5 0 0 0-4.81 3.92l-2 9.08H8a5 5 0 0 0-5 5v8a5 5 0 0 0 4.05 4.9 9 9 0 1 1 17.89.1h10.12a9 9 0 1 1 17.88 0H56a5 5 0 0 0 4.9-4H57a3 3 0 0 1-3-3ZM42.12 25.72 46.36 34H30V23h7.67a5 5 0 0 1 4.45 2.72ZM35 19v2H17v-2Zm-22.86 6.36A3 3 0 0 1 15.07 23H28v11H10.24Z"></path></svg>