<svg xmlns="http://www.w3.org/2000/svg" enable-background="new 0 0 50 50" viewBox="0 0 50 50" id="frog"><path fill="brown" d="M12.6193,21.0986c3.4376,0.768,7.4988,1.4781,10.9673,1.1696c-3.3424,1.1243-7.6143,0.6006-11.0837-0.1293
		c-2.2134-0.4968-5.8475-1.5827-9.1453-2.6933c3.0977,2.1768,9.761,5.6461,9.761,5.6461c-2.0703,3.8835-8.6949,2.7117-8.6949,2.7117
		c-1.2587-0.1798-1.7585,0.2458-1.9537,0.6624c-0.1967,0.4198-0.0217,0.9121,0.4035,1.0967
		c0.5206,0.226,1.1361,0.1337,1.1361,0.1337c2.78-0.9168,4.3771,0.5028,4.3771,0.5028c-3.3715,1.1238-2.366,1.9519-2.366,1.9519
		c0.8716,1.001,5.2347-1.7449,5.2347-1.7449c1.597-1.0352,3.0462-0.4437,3.0462-0.4437c0.9168,0.6211,2.3068,0.3549,2.3068,0.3549
		c1.6266-0.2366,0.7098-1.6857,0.7098-1.6857c-0.562-0.9169,0.1183-1.9815,0.1183-1.9815
		c5.353,1.8928,11.9186-0.1775,11.9186-0.1775c0.0879,1.7802-0.9021,4.1647-1.4165,5.2723
		c-0.2003,0.431-0.6141,0.7267-1.0889,0.7493c-2.8358,0.1352-6.7075-1.8343-7.4885-1.6866
		c-0.9031,0.1708-1.005,1.4008-0.1797,1.8054c0.3845,0.1885,0.7689,0.2477,0.7689,0.2477c2.5139-0.1478,2.9575,0.562,2.9575,0.562
		c0,1.0055-6.0037,1.7153-6.0037,1.7153c-3.2532,0-3.8447,1.2125-3.8447,1.2125c1.4196,0.9168,4.8206,0.1479,4.8206,0.1479
		c3.4898-0.8281,5.5305,0.8577,5.5305,0.8577c-2.6025,1.1534-1.0647,1.7449-1.0647,1.7449c1.7449,0.4732,4.525-1.8336,4.525-1.8336
		c0.9464-1.4196,4.2291-2.0998,4.2291-2.0998c2.4261-0.3662,3.2581-4.1334,3.5103-5.8181c0.063-0.4206,0.3324-0.7764,0.7228-0.9449
		c1.3878-0.5991,2.8353-2.9374,2.8353-2.9374c-0.207,2.1589,0.9168,3.756,0.9168,3.756c1.3309,2.4251,3.963,2.0702,3.963,2.0702
		c-0.7389,0.7725-3.8849,1.7056-6.3166,2.7692c0.0168-0.0167,0.0334-0.0334,0.0502-0.0502c-1.1322,0.4911-1.8482,0.9241-2.306,1.282
		c-0.2282,0.1813-0.3237,0.433-0.3126,0.679c0.0101,0.2366,0.1222,0.4655,0.3072,0.6231c0.0069,0.0059,0.0113,0.0139,0.0184,0.0197
		c0.0043,0.0034,0.0101,0.005,0.0144,0.0083c0.1297,0.0997,0.2911,0.1667,0.4803,0.1768c2.2644,0.1165,4.9867-1.69,4.9867-1.69
		c0.0077,0.0206,0.0189,0.0318,0.0269,0.0516c0.0538,0.1342,0.1152,0.2483,0.1818,0.3489c0.0224,0.0338,0.0441,0.0692,0.0678,0.0994
		c0.0762,0.0969,0.1592,0.1755,0.2484,0.2371c0.0271,0.0187,0.0555,0.0334,0.0837,0.049c0.0931,0.0516,0.1903,0.092,0.2945,0.112
		c0.0162,0.0031,0.033,0.0045,0.0494,0.0068c0.108,0.0157,0.222,0.0133,0.3397-0.0004c0.0245-0.0029,0.0482-0.0042,0.0731-0.0083
		c0.1296-0.0211,0.2641-0.0586,0.4026-0.1098c0.0162-0.0061,0.0328-0.0129,0.0491-0.0193c2.2053-0.8614,5.3716-5.1763,5.3716-5.1763
		c3.3386-4.746,1.8978-8.4631-2.3986-8.512c-0.4541-0.0051-0.8899-0.2133-1.17-0.5707c-1.0334-1.3183-3.3222-2.3627-3.3222-2.3627
		c-0.5309-0.236-0.8707-0.7588-1.0778-1.2236c-1.5271-3.4268-20.557-4.3179-20.6595-4.3364
		c-4.9094-0.0296-7.6894-2.2477-7.6894-2.2477c-2.6321-1.8041-4.17,0.9464-4.17,0.9464c-0.9929,1.7268-4.4826,0.3356-5.4797,2.704
		c-0.6257,1.4862,0.4501,2.8391,0.808,3.233C5.8323,19.3882,10.2699,20.5905,12.6193,21.0986z M14.823,16.1929
		c0,1.5948-1.2929,2.8878-2.8877,2.8878c-1.5948,0-2.8876-1.293-2.8876-2.8878C9.0477,12.3696,14.823,12.3747,14.823,16.1929z
		 M5.3435,14.155c0.3134,0,0.5674,0.254,0.5674,0.5673c0,0.3134-0.254,0.5674-0.5674,0.5674
		C4.5923,15.2897,4.5934,14.155,5.3435,14.155z"></path><path d="M14.305,16.4563c-1.1465-1.6045-3.2685-1.8404-4.7393-0.5269C10.7121,17.5339,12.834,17.7698,14.305,16.4563z
		 M11.9354,15.2897c0.2619,0,0.4742,0.2123,0.4742,0.4741c0,0.262-0.2123,0.4743-0.4742,0.4743s-0.4742-0.2123-0.4742-0.4743
		C11.4611,15.502,11.6735,15.2897,11.9354,15.2897z"></path></svg>