<svg xmlns="http://www.w3.org/2000/svg" data-name="Layer 1" viewBox="0 0 512 512" id="ghost"><path fill="#dedede" d="M504.5 254.737c-.7 3.57-6.16 29.08-30.71 42.73a60.634 60.634 0 0 1-39.17 6.64 58.558 58.558 0 0 1-9.7-2.36q.03 3.885-.29 7.7c-2.31 27.7-18.2 51.7-41.59 62.09-20.38 9.06-39.92 4.88-50.27 1.36a69.69 69.69 0 0 1-6.97-2.78q.945 3.84 1.61 7.32c4.44 23.31-.24 35.49-6.24 42.36-12.44 14.25-34.59 10.39-38.42 22.78-3.19 10.29 11.01 16.34 10.1 31.11-.85 13.68-14.37 30.19-33.23 31.54-19.95 1.43-35.44-14.82-38.01-28.71-2.78-14.99 10.56-21.46 6.73-33.28-5.06-15.6-30.65-11.59-42.14-28.97-4.14-6.26-7.66-17.12-2.22-36.99.62-2.27 1.35-4.65 2.22-7.16a69.156 69.156 0 0 1-6.98 2.78c-10.35 3.52-29.89 7.7-50.26-1.36-23.45-10.42-39.36-34.51-41.6-62.3q-.315-3.705-.28-7.49a54.607 54.607 0 0 1-7.25 1.92 60.95 60.95 0 0 1-41.62-6.2c-24.55-13.65-30.01-39.16-30.71-42.73 30.01-25.74 41.31-50.48 46.07-68.37 8.34-31.35-10.02-90.34 28.6-105.77 21.8-8.72 31.12 8.81 46.74 19.07 13.09 8.61 38.55 15.53 51.43 2.92 11.53-11.3-1.33-28.14 6.08-50.04 8.23-24.29 37.93-44.52 69.58-44.23 28.59.27 56.17 17.26 65.95 39.88 9.77 22.61-2.52 40.91 10.86 53.08 12.51 11.38 34.68 5.75 36.27 5.33 22.52-6.03 32.97-36.17 59.72-26.39 39.85 14.57 21.24 74.63 29.63 106.15 4.76 17.89 16.06 42.63 46.07 68.37Z"></path><path fill="#cecece" d="M57.08 301.747c-.772.267-2.386.8-4.659 1.35q2.385.6 4.692.98c-.015-.776-.04-1.55-.033-2.33zm234.87-253.55c9.77 22.61-2.52 40.91 10.86 53.08 12.51 11.38 34.68 5.75 36.27 5.33a31.441 31.441 0 0 0 1.736-.523 24.785 24.785 0 0 1-8.006-4.807c-13.38-12.17-1.09-30.47-10.86-53.08-9.78-22.62-37.36-39.61-65.95-39.88a75.867 75.867 0 0 0-15.685 1.524c23.08 4.656 43.507 19.556 51.635 38.356zM412.924 297.87c-.439-.105-1.776-.408-3.689-.922a47.184 47.184 0 0 1-6.686-2.075c-1.552-.715-4.343-2.452-6.686-7.147l-1.233 21.721c-2.31 27.7-18.2 51.7-41.59 62.09a62.637 62.637 0 0 1-11.384 3.805c10.856 2.315 25.875 3.09 41.384-3.805 23.39-10.39 39.28-34.39 41.59-62.09.147-1.776.219-3.57.255-5.372-5.604-4.09-9.443-5.6-11.96-6.205zm45.506-111.503c-8.39-31.52 10.22-91.58-29.63-106.15-9.995-3.654-17.714-1.734-24.638 2.418 32.754 17.878 16.282 73.731 24.268 103.732 4.76 17.89 16.06 42.63 46.07 68.37-.7 3.57-6.16 29.08-30.71 42.73a58.475 58.475 0 0 1-14.216 5.627c1.434.35 3.125.707 5.046 1.013a60.634 60.634 0 0 0 39.17-6.64c24.55-13.65 30.01-39.16 30.71-42.73-30.01-25.74-41.31-50.48-46.07-68.37zm-359.52-86.7c11.26 7.407 31.669 13.55 45.355 7.099a62.538 62.538 0 0 1-15.355-7.099c-15.62-10.26-24.94-27.79-46.74-19.07a39.097 39.097 0 0 0-4.635 2.215c7.139 4.57 13.446 11.647 21.375 16.855zm228.408 277.322a30.768 30.768 0 0 1-14.417-6.686c-10.462-8.84-10.944-21.8-10.991-24.033a82.732 82.732 0 0 0 .263 22.143c.996 6.678 2.05 7.952 2.646 14.322.489 5.235 1.272 13.626-2.055 22.02-1.135 2.864-3.687 8.094-11.594 15.042-19.27 16.931-35.34 12.845-38.42 22.78-3.19 10.29 11.01 16.34 10.1 31.11-.645 10.387-8.6 22.4-20.646 28.174a34.339 34.339 0 0 0 17.416 3.366c18.86-1.35 32.38-17.86 33.23-31.54.91-14.77-13.29-20.82-10.1-31.11 3.799-12.253 25.918-8.314 38.42-22.78 10.018-11.593 8.907-29.185 6.148-42.808z"></path><path fill="#272a33" d="M509.383 248.23c-22.794-19.557-37.5-41.294-43.706-64.608-2.393-8.99-2.352-21.19-2.31-34.106.097-29.13.219-65.383-31.99-77.158-20.462-7.481-33.887 4.154-44.677 13.5-6.398 5.543-12.44 10.779-19.558 12.683-.195.052-19.651 5.132-29.286-3.63-4.423-4.021-4.512-9.213-4.287-18.803.205-8.77.46-19.684-4.733-31.7C317.838 18.965 287.235.29 256.069.002a87.087 87.087 0 0 0-47.725 14.103c-14.136 9.177-24.445 21.686-29.027 35.223-3.98 11.76-2.897 22.13-2.027 30.462.994 9.524 1.062 13.424-2.197 16.616-9.372 9.177-30.82 3.567-42.066-3.821a100.971 100.971 0 0 1-10.266-8.136c-10.205-8.83-22.905-19.817-43.376-11.638-31.043 12.404-30.89 48.03-30.765 76.656.054 12.918.107 25.12-2.297 34.152-6.205 23.316-20.911 45.053-43.707 64.61a7.5 7.5 0 0 0-2.476 7.138c1.058 5.38 7.687 32.974 34.429 47.84a68.244 68.244 0 0 0 45.424 7.232c2.864 29.96 20.202 55.704 45.918 67.135 18.728 8.324 36.844 6.645 49.271 3.492-2.985 14.971-1.397 27.216 4.76 36.524 7.038 10.642 18.032 14.691 26.866 17.944 8.037 2.96 13.033 4.987 14.398 9.195.857 2.644.014 4.72-2.429 9.557-2.705 5.358-6.411 12.693-4.545 22.776 3.219 17.394 21.001 34.936 42.957 34.936q1.47 0 2.964-.106c22.706-1.631 39.106-21.254 40.179-38.559.62-9.992-3.933-16.952-7.257-22.033-2.81-4.296-3.613-5.866-3.163-7.32.735-2.378 4.833-3.812 11.495-5.891 7.984-2.491 17.92-5.593 25.411-14.177 8.55-9.799 11.519-24.275 8.874-43.14 12.443 3.336 31.095 5.38 50.397-3.198 25.716-11.431 43.054-37.174 45.918-67.135a68.218 68.218 0 0 0 45.424-7.231c26.75-14.872 33.372-42.463 34.428-47.843a7.501 7.501 0 0 0-2.476-7.137Zm-39.24 41.869c-16.405 9.12-32.473 6.611-39.925 4.6a7.631 7.631 0 0 0-.754-.271 57.641 57.641 0 0 1-24.3-14.616 59.226 59.226 0 0 1-13.094-20.434 7.5 7.5 0 1 0-14.02 5.334 73.302 73.302 0 0 0 16.446 25.644 72.35 72.35 0 0 0 22.809 15.561c-1.428 25.932-15.708 48.349-37.31 57.951-22.424 9.972-44.042 1.819-50.674-1.209a61.073 61.073 0 0 1-25.818-30.522 7.5 7.5 0 1 0-13.971 5.463 75.992 75.992 0 0 0 29.675 36.429c4.246 18.872 3.015 32.335-3.692 40.023-4.702 5.388-11.756 7.59-18.578 9.72-8.547 2.667-18.234 5.69-21.355 15.775-2.608 8.428 1.577 14.825 4.94 19.965 2.764 4.224 5.15 7.873 4.839 12.894-.873 14.088-15.897 23.78-26.282 24.526-.631.045-1.253.067-1.872.067-14.939-.002-26.412-12.87-28.225-22.665v-.001c-.945-5.106.877-8.715 3.185-13.282 2.74-5.427 6.152-12.18 3.306-20.948-3.681-11.352-14.2-15.226-23.481-18.644-7.823-2.88-15.213-5.603-19.54-12.144-5-7.558-5.022-19.254-.086-34.784a73.644 73.644 0 0 0 33.403-38.464 7.5 7.5 0 1 0-14.017-5.34 58.663 58.663 0 0 1-28.82 31.817c-6.326 2.93-28.214 11.422-50.927 1.324-21.521-9.566-35.777-31.85-37.297-57.658a72.472 72.472 0 0 0 25.176-16.536 73.307 73.307 0 0 0 16.446-25.646 7.5 7.5 0 0 0-14.02-5.333 59.226 59.226 0 0 1-13.094 20.434 57.641 57.641 0 0 1-24.3 14.616c-.051.016-.099.037-.149.053-.04.013-.082.02-.123.034-5.234 1.794-23.79 6.828-42.786-3.733-17.001-9.451-23.64-25.55-25.985-33.547 23.162-20.793 38.275-44.012 44.946-69.074 2.917-10.96 2.86-24.13 2.8-38.074-.12-27.794-.233-54.046 21.332-62.663 11.481-4.588 17.188-.298 27.997 9.053a112.303 112.303 0 0 0 11.843 9.328c15.617 10.261 44.804 17.664 60.796 2.002 8.744-8.561 7.616-19.361 6.622-28.89-.793-7.591-1.613-15.441 1.317-24.096C200.985 32.101 228.05 15 255.329 15l.601.002c25.512.236 50.382 15.106 59.136 35.357 3.89 9 3.695 17.337 3.507 25.398-.246 10.54-.502 21.438 9.191 30.252 15.365 13.97 40.45 7.773 43.257 7.021 10.45-2.795 18.446-9.722 25.501-15.834 11.202-9.706 18.108-14.991 29.705-10.75 20.77 7.593 22.251 29.882 22.14 63.02-.046 13.938-.089 27.103 2.814 38.015 6.672 25.06 21.785 48.279 44.947 69.072-2.342 7.995-8.979 24.09-25.986 33.546ZM243.106 66.344c6.242-8.178 6.554-18.544.696-23.152s-15.667-1.714-21.91 6.464c-6.242 8.178-6.554 18.544-.696 23.152 5.858 4.608 15.667 1.714 21.91-6.464Zm29.09-23.152c-5.858 4.608-5.546 14.974.697 23.152 6.242 8.178 16.05 11.072 21.909 6.464s5.546-14.974-.696-23.152c-6.243-8.178-16.052-11.072-21.91-6.464ZM256 87c-8.836 0-16 11.193-16 25s7.164 25 16 25 16-11.193 16-25-7.163-25-16-25Z"></path></svg>