<svg xmlns="http://www.w3.org/2000/svg" width="64" height="64" viewBox="0 0 64 64" id="grave"><g transform="translate(-384 -480)"><rect width="54" height="7" x="389" y="532" fill="#5b7fa0" fill-rule="evenodd" rx="0" ry="0"></rect><path fill="#5b7fa0" fill-rule="evenodd" d="m 393,525 h 46 v 7 h -46 z" color="#000"></path><path fill="#5b7fa0" fill-rule="evenodd" d="m 416,485 a 13.99997,13.99997 0 0 0 -13.63281,11 H 396 v 29 h 6 28 5 v -29 h -5.32617 A 13.99997,13.99997 0 0 0 416,485 Z"></path><path fill="#d8ecfe" fill-rule="evenodd" d="m 414,496 v 6 h -6 v 4 h 6 v 13 h 4 v -13 h 6 v -4 h -6 v -6 z"></path><path fill="#d8ecfe" fill-rule="evenodd" d="M389 516v0M389.70711 515.29289a1 1 0 00-1.41421 0 1 1 0 000 1.41421 1 1 0 001.41421 0 1 1 0 000-1.41421zM439 489v0M443.70711 484.29289a1 1 0 00-1.41422 0 1 1 0 000 1.41422 1 1 0 001.41422 0 1 1 0 000-1.41422zM441 507v0M441.7071 506.2929a1 1 0 00-1.41421 0 1 1 0 000 1.41421 1 1 0 001.41421 0 1 1 0 000-1.41421zM442.99999 521v0M443.7071 520.29289a1 1 0 00-1.41422 0 1 1 0 000 1.41421 1 1 0 001.41422 0 1 1 0 000-1.41421zM388.7071 508.29289v0M393.4142 503.58578a1 1 0 00-1.41421 0 1 1 0 000 1.41422 1 1 0 001.41421 0 1 1 0 000-1.41422z" color="#000"></path><path style="-inkscape-stroke:none" fill="#d8ecfe" fill-rule="evenodd" d="m 393.11408,484.87224 c -1.16319,-1.1632 -3.07944,-1.1632 -4.24264,0 -1.16319,1.16319 -1.1632,3.07944 0,4.24264 1.1632,1.16319 3.07945,1.16319 4.24264,0 1.1632,-1.1632 1.1632,-3.07945 0,-4.24264 z m -1.41421,1.41421 c 0.3989,0.3989 0.3989,1.01531 0,1.41421 -0.3989,0.3989 -1.01531,0.3989 -1.41421,0 -0.3989,-0.3989 -0.3989,-1.01531 0,-1.41421 0.39889,-0.3989 1.01531,-0.3989 1.41421,0 z" color="#000"></path><path fill="#d8ecfe" fill-rule="evenodd" d="M415.99414 483c-5.7228.0172-10.86558 3.07359-13.68555 7.78711a2 2 0 00.68946 2.74219 2 2 0 002.74414-.68946c1.24095-2.07423 3.07916-3.72109 5.25781-4.73046V493c0 .831.669 1.5 1.5 1.5.831 0 1.5-.669 1.5-1.5v-5.82617c.65359-.11231 1.324-.17178 2.00586-.17383A2 2 0 00418 484.99414 2 2 0 00415.99414 483zM411 523c-.831 0-1.5.669-1.5 1.5 0 .831.669 1.5 1.5 1.5h11v6.5c0 .831.669 1.5 1.5 1.5.831 0 1.5-.669 1.5-1.5v-8c0-.831-.669-1.5-1.5-1.5zM429.5 495c-.831 0-1.5.669-1.5 1.5 0 .831.669 1.5 1.5 1.5h3.5v4.5c0 .831.669 1.5 1.5 1.5.831 0 1.5-.669 1.5-1.5v-6c0-.831-.669-1.5-1.5-1.5z" color="#000"></path></g></svg>