<svg xmlns="http://www.w3.org/2000/svg" data-name="Layer 1" viewBox="0 0 512 512" id="snail"><path fill="#f7991d" d="M106.52979,339.26831Q77.83752,350.3255,49.82056,363.03613c-11.13623,5.05249-22.32642,10.35919-32.15284,17.72516-3.72631,2.793-11.47241,6.85846-8.46923,11.78443,2.2185,3.63855,11.99633,3.47131,14.6123,3.38537,37.72461-1.23926,77.12012,10.73535,114.4353,15.24079,57.66333,6.96228,115.606,7.40631,172.83863-3.25232a179.216,179.216,0,0,0,55.26855-19.62146c31.482-17.75452,53.24813-44.89336,64.35185-79.21987,3.495-10.80455,6.4201-23.036,15.39455-30.7811,18.73128-16.16466,44.83535-10.853,51.48371-40.888,4.15989-18.79308-2.75028-42.07139-18.41029-53.888-23.71679-17.896-59.428-7.86542-75.93115,14.94824-17.88989,24.7309-22.4873,57.57733-38.19287,83.966-5.76,9.6781-13.75537,18.64814-24.37695,22.39392-14.96338,5.27668-30.72778-.63671-45.71973-2.59075a229.5823,229.5823,0,0,0-49.50073-.71228c-33.9812,2.97631-67.06274,12.403-99.2395,23.351Q126.22986,331.67615,106.52979,339.26831Z"></path><path fill="#2c2b2d" d="M217.959,423.71045a672.079,672.079,0,0,1-80.6123-5.09277c-13.46484-1.62549-27.34375-4.23389-40.76563-6.75684-24.084-4.52588-48.98339-9.2085-72.52441-8.43359-11.21289.36132-18.17383-1.91309-21.26172-6.97657-6.2373-10.23242,4.59961-17.68945,8.67969-20.49658.61621-.42383,1.19727-.82129,1.69531-1.19433,10.39356-7.79151,21.80176-13.22217,33.55176-18.55323C65.43945,347.71387,84.6543,339.66064,103.832,332.27c13.16895-5.0752,26.61524-9.95117,39.96387-14.49268,27.41211-9.32714,63.66406-20.45214,101.001-23.72216a237.22241,237.22241,0,0,1,51.124.74609c4.084.53223,8.17773,1.33252,12.13769,2.10693,10.75782,2.10352,20.92188,4.0918,30.11914.84766,7.57911-2.67236,14.45215-9.11768,20.42579-19.15625,6.75586-11.34961,11.33007-23.91553,16.17382-37.21973,5.89454-16.19092,11.99024-32.9331,22.3877-47.30664,10.09766-13.95849,26.66211-23.87451,44.30957-26.5249,15.5918-2.3418,30.58008,1.20557,42.21582,9.98584,17.293,13.04883,26.21484,38.91162,21.21484,61.49609-5.10644,23.06885-20.51464,29.11328-34.10937,34.44532-7.19336,2.82177-13.98828,5.4873-19.7959,10.49951-6.27734,5.4165-9.00391,14.15039-11.89062,23.397-.42188,1.35205-.84083,2.69385-1.26856,4.01465-11.70019,36.17187-35.14648,65.02685-67.80273,83.44385A186.24317,186.24317,0,0,1,312.458,415.29248,513.82343,513.82343,0,0,1,217.959,423.71045ZM29.31543,388.34229c23.33789,0,47.04785,4.45605,70.03711,8.77685,13.79,2.5918,26.81641,5.04,39.793,6.60693,62.65722,7.56446,118.45117,6.52539,170.5664-3.17968a171.30115,171.30115,0,0,0,52.957-18.78125c29.73925-16.77149,50.22851-42.00342,60.90039-74.99512.41113-1.27295.81445-2.56543,1.22168-3.86816,3.22949-10.34424,6.88964-22.06836,16.4082-30.28272,7.74707-6.68555,16.44531-10.09717,24.11914-13.10742,12.51855-4.91016,21.5625-8.458,24.94141-23.72363,3.73144-16.85547-2.97657-36.75147-15.6045-46.28028-8.39257-6.33252-19.37988-8.86474-30.95312-7.12549-13.74512,2.064-26.59863,9.7212-34.38281,20.48291-9.17188,12.67872-14.64844,27.72071-20.44629,43.646-4.86817,13.37109-9.90235,27.19727-17.37891,39.76025-7.81836,13.13575-17.34961,21.75928-28.32812,25.63086-13.05176,4.60205-26.29786,2.01123-37.98633-.27295-3.90137-.76269-7.58594-1.48339-11.19727-1.9541a222.28336,222.28336,0,0,0-47.87695-.67773c-35.73535,3.12988-70.86524,13.92529-97.47754,22.98-13.16113,4.478-26.418,9.28564-39.40137,14.28906v.00049c-18.90918,7.28662-37.85351,15.22607-56.30761,23.59912-10.96485,4.9751-21.56739,10.01074-30.75293,16.896-.64356.48291-1.39258,1.001-2.18848,1.54883-.04883.03369-.09961.06835-.15137.10449,1.06934.05176,2.3125.06689,3.73828.01953Q26.43409,388.34131,29.31543,388.34229Zm-14.72461-.78809Zm91.93848-48.28565h0Z"></path><path fill="#b28966" d="M237.29272,329.49548c1.88379.74109,44.27588,16.71741,71.47754-6.90008,20.49244-17.79236,18.87818-46.34711,17.79493-65.50842-.6626-11.71924-5.84839-75.63318-62.6084-111.13038-66.98487-41.89148-169.73706-11.30987-195.0564,66.29688-11.17871,34.26428-4.6626,73.88318,16.42114,103.02557,21.81836,30.14411,60.43091,46.17053,97.47486,40.9491a99.408,99.408,0,0,0,54.49633-26.73267A91.4784,91.4784,0,0,0,257.87158,300.207c13.02075-29.90283,8.12842-67.1991-13.28418-91.80365-26.18408-30.06732-73.5393-36.80261-105.73486-12.65875-29.91382,26.17315-31.93213,75.65655,1.21777,100.41467a45.37824,45.37824,0,0,0,69.97412-20.54584c3.00586-8.12841,3.40064-17.39764.09888-25.40533-3.31274-8.01868-10.56372-14.53461-19.10889-15.98255a20.717,20.717,0,0,0-9.782.63611c-10.77588,3.41046-14.00513,15.58618-14.36181,16.96991"></path><path fill="#2c2b2d" d="M168.666 364.71582c-35.00782.00147-68.94434-16.74951-89.41993-45.03906C56.59473 288.36719 49.89941 246.314 61.77051 209.92725c12.083-37.03662 41.915-66.59375 81.84765-81.09229 42.42969-15.40576 88.9043-11.3833 124.31543 10.7627 57.23047 35.7915 65.07813 98.65185 66.12012 117.06543 1.15625 20.46533 2.9043 51.39111-20.36621 71.59521-25.59473 22.22461-61.89258 13.73926-74.59766 9.77832a106.74958 106.74958 0 0 1-55.24511 25.61768A108.73431 108.73431 0 0 1 168.666 364.71582zm27.12011-230.13916a138.0956 138.0956 0 0 0-47.04883 8.35791c-35.56445 12.9126-62.06445 39.02637-72.707 71.645-10.41015 31.90967-4.52148 68.811 15.36719 96.30371 20.21 27.92139 55.67871 42.80518 90.35254 37.918a91.71794 91.71794 0 0 0 50.22461-24.59619c.07617-.07617.15332-.15088.23242-.22363A83.465 83.465 0 0 0 250.99609 297.21c11.96485-27.47558 7.00293-61.9707-12.06543-83.8833-24.12011-27.69531-66.83593-32.937-95.35058-11.75146a60.82429 60.82429 0 0 0-20.22461 47.543c.64746 16.73194 8.17676 31.30372 21.20312 41.03174a37.87866 37.87866 0 0 0 58.45411-17.14355c2.52832-6.83838 2.60156-14.1084.19726-19.93946-2.47461-5.98876-7.74707-10.48437-13.42871-11.44677a13.18229 13.18229 0 0 0-6.26562.39209c-6.72071 2.12646-9.11133 10.71777-9.36231 11.68994a7.49979 7.49979 0 1 1-14.52539-3.7417c2.18555-8.48535 8.41992-18.78662 19.36133-22.249a28.0587 28.0587 0 0 1 13.30566-.87891c10.81055 1.83105 20.3086 9.69141 24.78028 20.51123 3.82714 9.28174 3.82714 20.53174.0039 30.87061A52.87839 52.87839 0 0 1 135.584 302.16943c-16.72656-12.4917-26.3916-31.126-27.21777-52.47119a75.95408 75.95408 0 0 1 25.54785-59.59814q.2124-.186.43848-.35547c34.667-26 86.65527-19.8374 115.8916 13.7334 23.09375 26.53711 28.92188 66.6123 14.50293 99.72314A96.56734 96.56734 0 0 1 251 325.68311c13.50977 3.03222 36.66016 5.30957 52.85352-8.751 17.71289-15.3794 16.27441-40.83447 15.22363-59.42139-.93848-16.59472-7.97559-73.22412-59.09668-105.19531C241.2002 140.5708 218.84668 134.57666 195.78613 134.57666zM430.24414 184.00391a7.5037 7.5037 0 0 1-6.90039-10.43262l49.3623-116.27686a7.49965 7.49965 0 1 1 13.80665 5.86133L437.15039 179.43262A7.50048 7.50048 0 0 1 430.24414 184.00391z"></path><path fill="#2c2b2d" d="M425.85059,186.19727a7.5017,7.5017,0,0,1-7.36329-6.124L399.83887,80.251A7.49965,7.49965,0,1,1,414.583,77.49609l18.64844,99.82227a7.50679,7.50679,0,0,1-7.38086,8.87891Z"></path><circle cx="401.726" cy="67.904" r="16.454" fill="#e37626"></circle><path fill="#2c2b2d" d="M401.72656,91.85791a23.9541,23.9541,0,1,1,23.9541-23.9541A23.98155,23.98155,0,0,1,401.72656,91.85791Zm0-32.9082a8.9541,8.9541,0,1,0,8.9541,8.9541A8.96483,8.96483,0,0,0,401.72656,58.94971Z"></path><circle cx="479.61" cy="56.934" r="16.454" fill="#e37626"></circle><path fill="#2c2b2d" d="M479.60938 80.88867a23.95435 23.95435 0 1 1 23.9541-23.9541A23.98134 23.98134 0 0 1 479.60938 80.88867zm0-32.90869a8.95435 8.95435 0 1 0 8.9541 8.95459A8.96442 8.96442 0 0 0 479.60938 47.98zM480.7793 192.19043a7.50441 7.50441 0 0 1-7.38575-6.18848l-6.73828-37.92431a7.50041 7.50041 0 0 1 14.76953-2.624l3.63575 20.46436L498.21191 147.666a7.49991 7.49991 0 1 1 12.16993 8.76855l-23.51856 32.63965A7.50049 7.50049 0 0 1 480.7793 192.19043z"></path><circle cx="455.5" cy="207.5" r="7.5" fill="#2c2b2d"></circle></svg>